<mxfile host="app.diagrams.net" agent="Mozilla/5.0 (Windows NT 10.0; Win64; x64) AppleWebKit/537.36 (KHTML, like Gecko) Chrome/131.0.0.0 Safari/537.36" version="25.0.3">
  <diagram id="t8QoFsj8MZgXzhcuyan1" name="Page-1">
    <mxGraphModel dx="2333" dy="1469" grid="1" gridSize="10" guides="1" tooltips="1" connect="1" arrows="1" fold="1" page="1" pageScale="1" pageWidth="2339" pageHeight="3300" math="0" shadow="0">
      <root>
        <mxCell id="0" />
        <mxCell id="1" parent="0" />
        <mxCell id="2" value="10" style="rounded=1;html=1;fontFamily=Alegreya;fontSource=https%3A%2F%2Ffonts.googleapis.com%2Fcss%3Ffamily%3DAlegreya;whiteSpace=wrap;" parent="1" vertex="1">
          <mxGeometry x="600" y="90" width="40" height="30" as="geometry" />
        </mxCell>
        <mxCell id="3" value="3" style="rounded=1;html=1;fontFamily=Alegreya;fontSource=https%3A%2F%2Ffonts.googleapis.com%2Fcss%3Ffamily%3DAlegreya;whiteSpace=wrap;" parent="1" vertex="1">
          <mxGeometry x="440" y="170" width="40" height="30" as="geometry" />
        </mxCell>
        <mxCell id="4" value="18" style="rounded=1;html=1;fontFamily=Alegreya;fontSource=https%3A%2F%2Ffonts.googleapis.com%2Fcss%3Ffamily%3DAlegreya;whiteSpace=wrap;" parent="1" vertex="1">
          <mxGeometry x="760" y="170" width="40" height="30" as="geometry" />
        </mxCell>
        <mxCell id="5" value="1" style="rounded=1;html=1;fontFamily=Alegreya;fontSource=https%3A%2F%2Ffonts.googleapis.com%2Fcss%3Ffamily%3DAlegreya;whiteSpace=wrap;" parent="1" vertex="1">
          <mxGeometry x="360" y="250" width="40" height="30" as="geometry" />
        </mxCell>
        <mxCell id="11" value="15" style="rounded=1;html=1;fontFamily=Alegreya;fontSource=https%3A%2F%2Ffonts.googleapis.com%2Fcss%3Ffamily%3DAlegreya;whiteSpace=wrap;" parent="1" vertex="1">
          <mxGeometry x="680" y="250" width="40" height="30" as="geometry" />
        </mxCell>
        <mxCell id="12" value="19" style="rounded=1;html=1;fontFamily=Alegreya;fontSource=https%3A%2F%2Ffonts.googleapis.com%2Fcss%3Ffamily%3DAlegreya;whiteSpace=wrap;" parent="1" vertex="1">
          <mxGeometry x="840" y="250" width="40" height="30" as="geometry" />
        </mxCell>
        <mxCell id="13" value="17" style="rounded=1;html=1;fontFamily=Alegreya;fontSource=https%3A%2F%2Ffonts.googleapis.com%2Fcss%3Ffamily%3DAlegreya;whiteSpace=wrap;" parent="1" vertex="1">
          <mxGeometry x="760" y="400" width="40" height="30" as="geometry" />
        </mxCell>
        <mxCell id="14" value="16" style="rounded=1;html=1;fontFamily=Alegreya;fontSource=https%3A%2F%2Ffonts.googleapis.com%2Fcss%3Ffamily%3DAlegreya;whiteSpace=wrap;" parent="1" vertex="1">
          <mxGeometry x="720" y="330" width="40" height="30" as="geometry" />
        </mxCell>
        <mxCell id="17" value="" style="endArrow=blockThin;html=1;fontFamily=Alegreya;fontSource=https%3A%2F%2Ffonts.googleapis.com%2Fcss%3Ffamily%3DAlegreya;endFill=1;" parent="1" source="2" target="3" edge="1">
          <mxGeometry width="50" height="50" relative="1" as="geometry">
            <mxPoint x="420" y="200" as="sourcePoint" />
            <mxPoint x="470" y="150" as="targetPoint" />
          </mxGeometry>
        </mxCell>
        <mxCell id="18" value="" style="endArrow=blockThin;html=1;fontFamily=Alegreya;fontSource=https%3A%2F%2Ffonts.googleapis.com%2Fcss%3Ffamily%3DAlegreya;endFill=1;" parent="1" source="2" target="4" edge="1">
          <mxGeometry width="50" height="50" relative="1" as="geometry">
            <mxPoint x="730" y="160" as="sourcePoint" />
            <mxPoint x="640" y="215.38461538461547" as="targetPoint" />
          </mxGeometry>
        </mxCell>
        <mxCell id="19" value="" style="endArrow=blockThin;html=1;fontFamily=Alegreya;fontSource=https%3A%2F%2Ffonts.googleapis.com%2Fcss%3Ffamily%3DAlegreya;endFill=1;" parent="1" source="4" target="12" edge="1">
          <mxGeometry width="50" height="50" relative="1" as="geometry">
            <mxPoint x="860" y="250" as="sourcePoint" />
            <mxPoint x="770" y="305.3846153846155" as="targetPoint" />
          </mxGeometry>
        </mxCell>
        <mxCell id="20" value="" style="endArrow=blockThin;html=1;fontFamily=Alegreya;fontSource=https%3A%2F%2Ffonts.googleapis.com%2Fcss%3Ffamily%3DAlegreya;endFill=1;" parent="1" source="4" target="11" edge="1">
          <mxGeometry width="50" height="50" relative="1" as="geometry">
            <mxPoint x="690" y="240" as="sourcePoint" />
            <mxPoint x="600" y="295.3846153846155" as="targetPoint" />
          </mxGeometry>
        </mxCell>
        <mxCell id="21" value="" style="endArrow=blockThin;html=1;fontFamily=Alegreya;fontSource=https%3A%2F%2Ffonts.googleapis.com%2Fcss%3Ffamily%3DAlegreya;endFill=1;" parent="1" source="3" target="5" edge="1">
          <mxGeometry width="50" height="50" relative="1" as="geometry">
            <mxPoint x="530" y="240" as="sourcePoint" />
            <mxPoint x="440" y="295.3846153846155" as="targetPoint" />
          </mxGeometry>
        </mxCell>
        <mxCell id="28" value="" style="endArrow=blockThin;html=1;fontFamily=Alegreya;fontSource=https%3A%2F%2Ffonts.googleapis.com%2Fcss%3Ffamily%3DAlegreya;endFill=1;" parent="1" source="11" target="14" edge="1">
          <mxGeometry width="50" height="50" relative="1" as="geometry">
            <mxPoint x="770" y="320" as="sourcePoint" />
            <mxPoint x="680" y="375.3846153846155" as="targetPoint" />
          </mxGeometry>
        </mxCell>
        <mxCell id="SvM-fAqbU4V49uK0hZqV-30" value="1" style="rounded=1;html=1;fontFamily=Alegreya;fontSource=https%3A%2F%2Ffonts.googleapis.com%2Fcss%3Ffamily%3DAlegreya;whiteSpace=wrap;" vertex="1" parent="1">
          <mxGeometry x="420" y="500" width="40" height="30" as="geometry" />
        </mxCell>
        <mxCell id="SvM-fAqbU4V49uK0hZqV-32" value="3" style="rounded=1;html=1;fontFamily=Alegreya;fontSource=https%3A%2F%2Ffonts.googleapis.com%2Fcss%3Ffamily%3DAlegreya;whiteSpace=wrap;" vertex="1" parent="1">
          <mxGeometry x="520" y="530" width="40" height="30" as="geometry" />
        </mxCell>
        <mxCell id="SvM-fAqbU4V49uK0hZqV-40" value="10" style="rounded=1;html=1;fontFamily=Alegreya;fontSource=https%3A%2F%2Ffonts.googleapis.com%2Fcss%3Ffamily%3DAlegreya;whiteSpace=wrap;" vertex="1" parent="1">
          <mxGeometry x="580" y="570" width="40" height="30" as="geometry" />
        </mxCell>
        <mxCell id="SvM-fAqbU4V49uK0hZqV-44" value="15" style="rounded=1;html=1;fontFamily=Alegreya;fontSource=https%3A%2F%2Ffonts.googleapis.com%2Fcss%3Ffamily%3DAlegreya;whiteSpace=wrap;" vertex="1" parent="1">
          <mxGeometry x="620" y="650" width="40" height="30" as="geometry" />
        </mxCell>
        <mxCell id="SvM-fAqbU4V49uK0hZqV-46" value="" style="endArrow=blockThin;html=1;fontFamily=Alegreya;fontSource=https%3A%2F%2Ffonts.googleapis.com%2Fcss%3Ffamily%3DAlegreya;endFill=1;" edge="1" parent="1" source="SvM-fAqbU4V49uK0hZqV-30" target="SvM-fAqbU4V49uK0hZqV-32">
          <mxGeometry width="50" height="50" relative="1" as="geometry">
            <mxPoint x="550" y="570" as="sourcePoint" />
            <mxPoint x="460" y="625.3846153846155" as="targetPoint" />
          </mxGeometry>
        </mxCell>
        <mxCell id="SvM-fAqbU4V49uK0hZqV-47" value="" style="endArrow=blockThin;html=1;fontFamily=Alegreya;fontSource=https%3A%2F%2Ffonts.googleapis.com%2Fcss%3Ffamily%3DAlegreya;endFill=1;" edge="1" parent="1" source="SvM-fAqbU4V49uK0hZqV-32" target="SvM-fAqbU4V49uK0hZqV-40">
          <mxGeometry width="50" height="50" relative="1" as="geometry">
            <mxPoint x="620" y="610" as="sourcePoint" />
            <mxPoint x="530" y="665.3846153846155" as="targetPoint" />
          </mxGeometry>
        </mxCell>
        <mxCell id="SvM-fAqbU4V49uK0hZqV-56" value="" style="endArrow=blockThin;html=1;fontFamily=Alegreya;fontSource=https%3A%2F%2Ffonts.googleapis.com%2Fcss%3Ffamily%3DAlegreya;endFill=1;" edge="1" parent="1" source="SvM-fAqbU4V49uK0hZqV-44" target="SvM-fAqbU4V49uK0hZqV-122">
          <mxGeometry width="50" height="50" relative="1" as="geometry">
            <mxPoint x="447.5" y="600" as="sourcePoint" />
            <mxPoint x="472.5" y="650" as="targetPoint" />
          </mxGeometry>
        </mxCell>
        <mxCell id="SvM-fAqbU4V49uK0hZqV-58" value="" style="endArrow=blockThin;html=1;fontFamily=Alegreya;fontSource=https%3A%2F%2Ffonts.googleapis.com%2Fcss%3Ffamily%3DAlegreya;endFill=1;" edge="1" parent="1" source="SvM-fAqbU4V49uK0hZqV-40" target="SvM-fAqbU4V49uK0hZqV-44">
          <mxGeometry width="50" height="50" relative="1" as="geometry">
            <mxPoint x="700" y="620" as="sourcePoint" />
            <mxPoint x="610" y="675.3846153846155" as="targetPoint" />
          </mxGeometry>
        </mxCell>
        <mxCell id="SvM-fAqbU4V49uK0hZqV-59" value="10" style="rounded=1;html=1;fontFamily=Alegreya;fontSource=https%3A%2F%2Ffonts.googleapis.com%2Fcss%3Ffamily%3DAlegreya;whiteSpace=wrap;" vertex="1" parent="1">
          <mxGeometry x="1190" y="130" width="40" height="30" as="geometry" />
        </mxCell>
        <mxCell id="SvM-fAqbU4V49uK0hZqV-60" value="1" style="rounded=1;html=1;fontFamily=Alegreya;fontSource=https%3A%2F%2Ffonts.googleapis.com%2Fcss%3Ffamily%3DAlegreya;whiteSpace=wrap;" vertex="1" parent="1">
          <mxGeometry x="1030" y="210" width="40" height="30" as="geometry" />
        </mxCell>
        <mxCell id="SvM-fAqbU4V49uK0hZqV-61" value="16" style="rounded=1;html=1;fontFamily=Alegreya;fontSource=https%3A%2F%2Ffonts.googleapis.com%2Fcss%3Ffamily%3DAlegreya;whiteSpace=wrap;" vertex="1" parent="1">
          <mxGeometry x="1350" y="210" width="40" height="30" as="geometry" />
        </mxCell>
        <mxCell id="SvM-fAqbU4V49uK0hZqV-62" value="3" style="rounded=1;html=1;fontFamily=Alegreya;fontSource=https%3A%2F%2Ffonts.googleapis.com%2Fcss%3Ffamily%3DAlegreya;whiteSpace=wrap;" vertex="1" parent="1">
          <mxGeometry x="1100" y="290" width="40" height="30" as="geometry" />
        </mxCell>
        <mxCell id="SvM-fAqbU4V49uK0hZqV-68" value="15" style="rounded=1;html=1;fontFamily=Alegreya;fontSource=https%3A%2F%2Ffonts.googleapis.com%2Fcss%3Ffamily%3DAlegreya;whiteSpace=wrap;" vertex="1" parent="1">
          <mxGeometry x="1270" y="290" width="40" height="30" as="geometry" />
        </mxCell>
        <mxCell id="SvM-fAqbU4V49uK0hZqV-69" value="18" style="rounded=1;html=1;fontFamily=Alegreya;fontSource=https%3A%2F%2Ffonts.googleapis.com%2Fcss%3Ffamily%3DAlegreya;whiteSpace=wrap;" vertex="1" parent="1">
          <mxGeometry x="1430" y="290" width="40" height="30" as="geometry" />
        </mxCell>
        <mxCell id="SvM-fAqbU4V49uK0hZqV-72" value="17" style="rounded=1;html=1;fontFamily=Alegreya;fontSource=https%3A%2F%2Ffonts.googleapis.com%2Fcss%3Ffamily%3DAlegreya;whiteSpace=wrap;" vertex="1" parent="1">
          <mxGeometry x="1390" y="370" width="40" height="30" as="geometry" />
        </mxCell>
        <mxCell id="SvM-fAqbU4V49uK0hZqV-73" value="19" style="rounded=1;html=1;fontFamily=Alegreya;fontSource=https%3A%2F%2Ffonts.googleapis.com%2Fcss%3Ffamily%3DAlegreya;whiteSpace=wrap;" vertex="1" parent="1">
          <mxGeometry x="1470" y="370" width="40" height="30" as="geometry" />
        </mxCell>
        <mxCell id="SvM-fAqbU4V49uK0hZqV-74" value="" style="endArrow=blockThin;html=1;fontFamily=Alegreya;fontSource=https%3A%2F%2Ffonts.googleapis.com%2Fcss%3Ffamily%3DAlegreya;endFill=1;" edge="1" parent="1" source="SvM-fAqbU4V49uK0hZqV-59" target="SvM-fAqbU4V49uK0hZqV-60">
          <mxGeometry width="50" height="50" relative="1" as="geometry">
            <mxPoint x="1010" y="240" as="sourcePoint" />
            <mxPoint x="1060" y="190" as="targetPoint" />
          </mxGeometry>
        </mxCell>
        <mxCell id="SvM-fAqbU4V49uK0hZqV-75" value="" style="endArrow=blockThin;html=1;fontFamily=Alegreya;fontSource=https%3A%2F%2Ffonts.googleapis.com%2Fcss%3Ffamily%3DAlegreya;endFill=1;" edge="1" parent="1" source="SvM-fAqbU4V49uK0hZqV-59" target="SvM-fAqbU4V49uK0hZqV-61">
          <mxGeometry width="50" height="50" relative="1" as="geometry">
            <mxPoint x="1320" y="200" as="sourcePoint" />
            <mxPoint x="1230" y="255.38461538461547" as="targetPoint" />
          </mxGeometry>
        </mxCell>
        <mxCell id="SvM-fAqbU4V49uK0hZqV-76" value="" style="endArrow=blockThin;html=1;fontFamily=Alegreya;fontSource=https%3A%2F%2Ffonts.googleapis.com%2Fcss%3Ffamily%3DAlegreya;endFill=1;" edge="1" parent="1" source="SvM-fAqbU4V49uK0hZqV-61" target="SvM-fAqbU4V49uK0hZqV-69">
          <mxGeometry width="50" height="50" relative="1" as="geometry">
            <mxPoint x="1450" y="290" as="sourcePoint" />
            <mxPoint x="1360" y="345.3846153846155" as="targetPoint" />
          </mxGeometry>
        </mxCell>
        <mxCell id="SvM-fAqbU4V49uK0hZqV-77" value="" style="endArrow=blockThin;html=1;fontFamily=Alegreya;fontSource=https%3A%2F%2Ffonts.googleapis.com%2Fcss%3Ffamily%3DAlegreya;endFill=1;" edge="1" parent="1" source="SvM-fAqbU4V49uK0hZqV-61" target="SvM-fAqbU4V49uK0hZqV-68">
          <mxGeometry width="50" height="50" relative="1" as="geometry">
            <mxPoint x="1280" y="280" as="sourcePoint" />
            <mxPoint x="1190" y="335.3846153846155" as="targetPoint" />
          </mxGeometry>
        </mxCell>
        <mxCell id="SvM-fAqbU4V49uK0hZqV-78" value="" style="endArrow=blockThin;html=1;fontFamily=Alegreya;fontSource=https%3A%2F%2Ffonts.googleapis.com%2Fcss%3Ffamily%3DAlegreya;endFill=1;" edge="1" parent="1" source="SvM-fAqbU4V49uK0hZqV-60" target="SvM-fAqbU4V49uK0hZqV-62">
          <mxGeometry width="50" height="50" relative="1" as="geometry">
            <mxPoint x="1120" y="280" as="sourcePoint" />
            <mxPoint x="1030" y="335.3846153846155" as="targetPoint" />
          </mxGeometry>
        </mxCell>
        <mxCell id="SvM-fAqbU4V49uK0hZqV-86" value="" style="endArrow=blockThin;html=1;fontFamily=Alegreya;fontSource=https%3A%2F%2Ffonts.googleapis.com%2Fcss%3Ffamily%3DAlegreya;endFill=1;" edge="1" parent="1" source="SvM-fAqbU4V49uK0hZqV-69" target="SvM-fAqbU4V49uK0hZqV-72">
          <mxGeometry width="50" height="50" relative="1" as="geometry">
            <mxPoint x="1440" y="340" as="sourcePoint" />
            <mxPoint x="1350" y="395.3846153846155" as="targetPoint" />
          </mxGeometry>
        </mxCell>
        <mxCell id="SvM-fAqbU4V49uK0hZqV-87" value="" style="endArrow=blockThin;html=1;fontFamily=Alegreya;fontSource=https%3A%2F%2Ffonts.googleapis.com%2Fcss%3Ffamily%3DAlegreya;endFill=1;" edge="1" parent="1" source="SvM-fAqbU4V49uK0hZqV-69" target="SvM-fAqbU4V49uK0hZqV-73">
          <mxGeometry width="50" height="50" relative="1" as="geometry">
            <mxPoint x="1550" y="340" as="sourcePoint" />
            <mxPoint x="1460" y="395.3846153846155" as="targetPoint" />
          </mxGeometry>
        </mxCell>
        <mxCell id="SvM-fAqbU4V49uK0hZqV-88" value="10" style="rounded=1;html=1;fontFamily=Alegreya;fontSource=https%3A%2F%2Ffonts.googleapis.com%2Fcss%3Ffamily%3DAlegreya;whiteSpace=wrap;" vertex="1" parent="1">
          <mxGeometry x="1330" y="530" width="40" height="30" as="geometry" />
        </mxCell>
        <mxCell id="SvM-fAqbU4V49uK0hZqV-89" value="3" style="rounded=1;html=1;fontFamily=Alegreya;fontSource=https%3A%2F%2Ffonts.googleapis.com%2Fcss%3Ffamily%3DAlegreya;whiteSpace=wrap;" vertex="1" parent="1">
          <mxGeometry x="1170" y="610" width="40" height="30" as="geometry" />
        </mxCell>
        <mxCell id="SvM-fAqbU4V49uK0hZqV-90" value="18" style="rounded=1;html=1;fontFamily=Alegreya;fontSource=https%3A%2F%2Ffonts.googleapis.com%2Fcss%3Ffamily%3DAlegreya;whiteSpace=wrap;" vertex="1" parent="1">
          <mxGeometry x="1490" y="610" width="40" height="30" as="geometry" />
        </mxCell>
        <mxCell id="SvM-fAqbU4V49uK0hZqV-91" value="1" style="rounded=1;html=1;fontFamily=Alegreya;fontSource=https%3A%2F%2Ffonts.googleapis.com%2Fcss%3Ffamily%3DAlegreya;whiteSpace=wrap;" vertex="1" parent="1">
          <mxGeometry x="1090" y="690" width="40" height="30" as="geometry" />
        </mxCell>
        <mxCell id="SvM-fAqbU4V49uK0hZqV-97" value="15" style="rounded=1;html=1;fontFamily=Alegreya;fontSource=https%3A%2F%2Ffonts.googleapis.com%2Fcss%3Ffamily%3DAlegreya;whiteSpace=wrap;" vertex="1" parent="1">
          <mxGeometry x="1410" y="690" width="40" height="30" as="geometry" />
        </mxCell>
        <mxCell id="SvM-fAqbU4V49uK0hZqV-98" value="19" style="rounded=1;html=1;fontFamily=Alegreya;fontSource=https%3A%2F%2Ffonts.googleapis.com%2Fcss%3Ffamily%3DAlegreya;whiteSpace=wrap;" vertex="1" parent="1">
          <mxGeometry x="1570" y="690" width="40" height="30" as="geometry" />
        </mxCell>
        <mxCell id="SvM-fAqbU4V49uK0hZqV-99" value="17" style="rounded=1;html=1;fontFamily=Alegreya;fontSource=https%3A%2F%2Ffonts.googleapis.com%2Fcss%3Ffamily%3DAlegreya;whiteSpace=wrap;" vertex="1" parent="1">
          <mxGeometry x="1500" y="840" width="40" height="30" as="geometry" />
        </mxCell>
        <mxCell id="SvM-fAqbU4V49uK0hZqV-100" value="16" style="rounded=1;html=1;fontFamily=Alegreya;fontSource=https%3A%2F%2Ffonts.googleapis.com%2Fcss%3Ffamily%3DAlegreya;whiteSpace=wrap;" vertex="1" parent="1">
          <mxGeometry x="1450" y="770" width="40" height="30" as="geometry" />
        </mxCell>
        <mxCell id="SvM-fAqbU4V49uK0hZqV-103" value="" style="endArrow=blockThin;html=1;fontFamily=Alegreya;fontSource=https%3A%2F%2Ffonts.googleapis.com%2Fcss%3Ffamily%3DAlegreya;endFill=1;" edge="1" parent="1" source="SvM-fAqbU4V49uK0hZqV-88" target="SvM-fAqbU4V49uK0hZqV-89">
          <mxGeometry width="50" height="50" relative="1" as="geometry">
            <mxPoint x="1150" y="640" as="sourcePoint" />
            <mxPoint x="1200" y="590" as="targetPoint" />
          </mxGeometry>
        </mxCell>
        <mxCell id="SvM-fAqbU4V49uK0hZqV-104" value="" style="endArrow=blockThin;html=1;fontFamily=Alegreya;fontSource=https%3A%2F%2Ffonts.googleapis.com%2Fcss%3Ffamily%3DAlegreya;endFill=1;" edge="1" parent="1" source="SvM-fAqbU4V49uK0hZqV-88" target="SvM-fAqbU4V49uK0hZqV-90">
          <mxGeometry width="50" height="50" relative="1" as="geometry">
            <mxPoint x="1460" y="600" as="sourcePoint" />
            <mxPoint x="1370" y="655.3846153846152" as="targetPoint" />
          </mxGeometry>
        </mxCell>
        <mxCell id="SvM-fAqbU4V49uK0hZqV-105" value="" style="endArrow=blockThin;html=1;fontFamily=Alegreya;fontSource=https%3A%2F%2Ffonts.googleapis.com%2Fcss%3Ffamily%3DAlegreya;endFill=1;" edge="1" parent="1" source="SvM-fAqbU4V49uK0hZqV-90" target="SvM-fAqbU4V49uK0hZqV-98">
          <mxGeometry width="50" height="50" relative="1" as="geometry">
            <mxPoint x="1590" y="690" as="sourcePoint" />
            <mxPoint x="1500" y="745.3846153846152" as="targetPoint" />
          </mxGeometry>
        </mxCell>
        <mxCell id="SvM-fAqbU4V49uK0hZqV-106" value="" style="endArrow=blockThin;html=1;fontFamily=Alegreya;fontSource=https%3A%2F%2Ffonts.googleapis.com%2Fcss%3Ffamily%3DAlegreya;endFill=1;" edge="1" parent="1" source="SvM-fAqbU4V49uK0hZqV-90" target="SvM-fAqbU4V49uK0hZqV-97">
          <mxGeometry width="50" height="50" relative="1" as="geometry">
            <mxPoint x="1420" y="680" as="sourcePoint" />
            <mxPoint x="1330" y="735.3846153846152" as="targetPoint" />
          </mxGeometry>
        </mxCell>
        <mxCell id="SvM-fAqbU4V49uK0hZqV-107" value="" style="endArrow=blockThin;html=1;fontFamily=Alegreya;fontSource=https%3A%2F%2Ffonts.googleapis.com%2Fcss%3Ffamily%3DAlegreya;endFill=1;" edge="1" parent="1" source="SvM-fAqbU4V49uK0hZqV-89" target="SvM-fAqbU4V49uK0hZqV-91">
          <mxGeometry width="50" height="50" relative="1" as="geometry">
            <mxPoint x="1260" y="680" as="sourcePoint" />
            <mxPoint x="1170" y="735.3846153846152" as="targetPoint" />
          </mxGeometry>
        </mxCell>
        <mxCell id="SvM-fAqbU4V49uK0hZqV-114" value="" style="endArrow=blockThin;html=1;fontFamily=Alegreya;fontSource=https%3A%2F%2Ffonts.googleapis.com%2Fcss%3Ffamily%3DAlegreya;endFill=1;" edge="1" parent="1" source="SvM-fAqbU4V49uK0hZqV-97" target="SvM-fAqbU4V49uK0hZqV-100">
          <mxGeometry width="50" height="50" relative="1" as="geometry">
            <mxPoint x="1500" y="760" as="sourcePoint" />
            <mxPoint x="1410" y="815.3846153846152" as="targetPoint" />
          </mxGeometry>
        </mxCell>
        <mxCell id="SvM-fAqbU4V49uK0hZqV-117" value="a) 10, 18, 3, 15, 16, 19, 1, 17" style="text;whiteSpace=wrap;" vertex="1" parent="1">
          <mxGeometry x="530" y="40" width="240" height="60" as="geometry" />
        </mxCell>
        <mxCell id="SvM-fAqbU4V49uK0hZqV-118" value="" style="endArrow=blockThin;html=1;fontFamily=Alegreya;fontSource=https%3A%2F%2Ffonts.googleapis.com%2Fcss%3Ffamily%3DAlegreya;endFill=1;" edge="1" parent="1" source="14" target="13">
          <mxGeometry width="50" height="50" relative="1" as="geometry">
            <mxPoint x="760" y="380" as="sourcePoint" />
            <mxPoint x="785" y="430" as="targetPoint" />
          </mxGeometry>
        </mxCell>
        <mxCell id="SvM-fAqbU4V49uK0hZqV-119" value="&lt;br&gt;c) 1, 3, 10, 15, 16, 17, 18, 19&lt;br/&gt;&lt;div&gt;&lt;br/&gt;&lt;/div&gt;" style="text;whiteSpace=wrap;html=1;" vertex="1" parent="1">
          <mxGeometry x="460" y="440" width="190" height="100" as="geometry" />
        </mxCell>
        <mxCell id="SvM-fAqbU4V49uK0hZqV-120" value="b) 10, 16, 1, 18, 19, 15, 17, 3" style="text;whiteSpace=wrap;html=1;" vertex="1" parent="1">
          <mxGeometry x="1140" y="60" width="180" height="60" as="geometry" />
        </mxCell>
        <mxCell id="SvM-fAqbU4V49uK0hZqV-121" value="d) 10, 3, 18, 15, 19, 16, 17, 1" style="text;whiteSpace=wrap;html=1;" vertex="1" parent="1">
          <mxGeometry x="1260" y="460" width="190" height="100" as="geometry" />
        </mxCell>
        <mxCell id="SvM-fAqbU4V49uK0hZqV-122" value="16" style="rounded=1;html=1;fontFamily=Alegreya;fontSource=https%3A%2F%2Ffonts.googleapis.com%2Fcss%3Ffamily%3DAlegreya;whiteSpace=wrap;" vertex="1" parent="1">
          <mxGeometry x="680" y="690" width="40" height="30" as="geometry" />
        </mxCell>
        <mxCell id="SvM-fAqbU4V49uK0hZqV-123" value="17" style="rounded=1;html=1;fontFamily=Alegreya;fontSource=https%3A%2F%2Ffonts.googleapis.com%2Fcss%3Ffamily%3DAlegreya;whiteSpace=wrap;" vertex="1" parent="1">
          <mxGeometry x="740" y="750" width="40" height="30" as="geometry" />
        </mxCell>
        <mxCell id="SvM-fAqbU4V49uK0hZqV-125" value="18" style="rounded=1;html=1;fontFamily=Alegreya;fontSource=https%3A%2F%2Ffonts.googleapis.com%2Fcss%3Ffamily%3DAlegreya;whiteSpace=wrap;" vertex="1" parent="1">
          <mxGeometry x="790" y="810" width="40" height="30" as="geometry" />
        </mxCell>
        <mxCell id="SvM-fAqbU4V49uK0hZqV-126" value="19" style="rounded=1;html=1;fontFamily=Alegreya;fontSource=https%3A%2F%2Ffonts.googleapis.com%2Fcss%3Ffamily%3DAlegreya;whiteSpace=wrap;" vertex="1" parent="1">
          <mxGeometry x="860" y="880" width="40" height="30" as="geometry" />
        </mxCell>
        <mxCell id="SvM-fAqbU4V49uK0hZqV-127" value="" style="endArrow=blockThin;html=1;fontFamily=Alegreya;fontSource=https%3A%2F%2Ffonts.googleapis.com%2Fcss%3Ffamily%3DAlegreya;endFill=1;" edge="1" parent="1" source="SvM-fAqbU4V49uK0hZqV-122" target="SvM-fAqbU4V49uK0hZqV-123">
          <mxGeometry width="50" height="50" relative="1" as="geometry">
            <mxPoint x="700" y="730" as="sourcePoint" />
            <mxPoint x="725" y="790" as="targetPoint" />
          </mxGeometry>
        </mxCell>
        <mxCell id="SvM-fAqbU4V49uK0hZqV-128" value="" style="endArrow=blockThin;html=1;fontFamily=Alegreya;fontSource=https%3A%2F%2Ffonts.googleapis.com%2Fcss%3Ffamily%3DAlegreya;endFill=1;" edge="1" parent="1" source="SvM-fAqbU4V49uK0hZqV-123" target="SvM-fAqbU4V49uK0hZqV-125">
          <mxGeometry width="50" height="50" relative="1" as="geometry">
            <mxPoint x="740" y="850" as="sourcePoint" />
            <mxPoint x="765" y="900" as="targetPoint" />
          </mxGeometry>
        </mxCell>
        <mxCell id="SvM-fAqbU4V49uK0hZqV-129" value="" style="endArrow=blockThin;html=1;fontFamily=Alegreya;fontSource=https%3A%2F%2Ffonts.googleapis.com%2Fcss%3Ffamily%3DAlegreya;endFill=1;" edge="1" parent="1" source="SvM-fAqbU4V49uK0hZqV-125" target="SvM-fAqbU4V49uK0hZqV-126">
          <mxGeometry width="50" height="50" relative="1" as="geometry">
            <mxPoint x="800" y="900" as="sourcePoint" />
            <mxPoint x="825" y="950" as="targetPoint" />
          </mxGeometry>
        </mxCell>
        <mxCell id="SvM-fAqbU4V49uK0hZqV-130" value="" style="endArrow=blockThin;html=1;fontFamily=Alegreya;fontSource=https%3A%2F%2Ffonts.googleapis.com%2Fcss%3Ffamily%3DAlegreya;endFill=1;" edge="1" parent="1" source="SvM-fAqbU4V49uK0hZqV-100" target="SvM-fAqbU4V49uK0hZqV-99">
          <mxGeometry width="50" height="50" relative="1" as="geometry">
            <mxPoint x="1420" y="830" as="sourcePoint" />
            <mxPoint x="1445" y="880" as="targetPoint" />
          </mxGeometry>
        </mxCell>
      </root>
    </mxGraphModel>
  </diagram>
</mxfile>
